<mxfile host="app.diagrams.net" modified="2024-06-23T17:02:24.382Z" agent="Mozilla/5.0 (Windows NT 10.0; Win64; x64) AppleWebKit/537.36 (KHTML, like Gecko) Chrome/126.0.0.0 Safari/537.36" etag="nfJ82mkEmOm-vVo8Iv5Y" version="24.6.2" type="device">
  <diagram name="Page-1" id="0hqafNpbN4DerOzJqb0F">
    <mxGraphModel dx="1593" dy="820" grid="1" gridSize="10" guides="1" tooltips="1" connect="1" arrows="1" fold="1" page="1" pageScale="1" pageWidth="850" pageHeight="1100" math="0" shadow="0">
      <root>
        <mxCell id="0" />
        <mxCell id="1" parent="0" />
        <mxCell id="a5eRfGYbZ1dnEUanDWgs-1" value="" style="rounded=0;whiteSpace=wrap;html=1;fillColor=#1a2532;strokeColor=#FFFFFF;fillStyle=auto;shadow=0;glass=0;strokeOpacity=100;fontStyle=0" vertex="1" parent="1">
          <mxGeometry x="40" y="360" width="760" height="300" as="geometry" />
        </mxCell>
        <mxCell id="nd-PTBWYmm2gFI9Ej4_t-31" value="" style="rounded=0;whiteSpace=wrap;html=1;fillColor=#1a2532;strokeColor=#FFFFFF;fillStyle=auto;shadow=0;glass=0;strokeOpacity=100;fontStyle=0" parent="1" vertex="1">
          <mxGeometry x="40" y="40" width="760" height="300" as="geometry" />
        </mxCell>
        <mxCell id="nd-PTBWYmm2gFI9Ej4_t-6" value="0" style="ellipse;whiteSpace=wrap;html=1;aspect=fixed;strokeWidth=2;fontFamily=JetBrains Mono;1,100..800&amp;display=swap;1,100..800&amp;display=swap;1,100..800&amp;display=swap;fontSource=https%3A%2F%2Ffonts.googleapis.com%2Fcss%3Ffamily%3DJetBrains%2BMono;fontStyle=0;fillColor=none;fontColor=#FFFFFF;strokeColor=#FFFFFF;" parent="1" vertex="1">
          <mxGeometry x="390" y="260" width="60" height="60" as="geometry" />
        </mxCell>
        <mxCell id="nd-PTBWYmm2gFI9Ej4_t-8" value="+300" style="ellipse;whiteSpace=wrap;html=1;aspect=fixed;strokeWidth=2;fontFamily=JetBrains Mono;1,100..800&amp;display=swap;1,100..800&amp;display=swap;1,100..800&amp;display=swap;fontSource=https%3A%2F%2Ffonts.googleapis.com%2Fcss%3Ffamily%3DJetBrains%2BMono;fontStyle=0;fillColor=none;fontColor=#FFFFFF;strokeColor=#FFFFFF;" parent="1" vertex="1">
          <mxGeometry x="60" y="260" width="60" height="60" as="geometry" />
        </mxCell>
        <mxCell id="nd-PTBWYmm2gFI9Ej4_t-9" value="+200" style="ellipse;whiteSpace=wrap;html=1;aspect=fixed;strokeWidth=2;fontFamily=JetBrains Mono;1,100..800&amp;display=swap;1,100..800&amp;display=swap;1,100..800&amp;display=swap;fontSource=https%3A%2F%2Ffonts.googleapis.com%2Fcss%3Ffamily%3DJetBrains%2BMono;fontStyle=0;fillColor=none;fontColor=#FFFFFF;strokeColor=#FFFFFF;" parent="1" vertex="1">
          <mxGeometry x="220" y="260" width="60" height="60" as="geometry" />
        </mxCell>
        <mxCell id="nd-PTBWYmm2gFI9Ej4_t-10" value="-100" style="ellipse;whiteSpace=wrap;html=1;aspect=fixed;strokeWidth=2;fontFamily=JetBrains Mono;1,100..800&amp;display=swap;1,100..800&amp;display=swap;1,100..800&amp;display=swap;fontSource=https%3A%2F%2Ffonts.googleapis.com%2Fcss%3Ffamily%3DJetBrains%2BMono;fontStyle=0;fillColor=none;fontColor=#FFFFFF;strokeColor=#FFFFFF;" parent="1" vertex="1">
          <mxGeometry x="470" y="260" width="60" height="60" as="geometry" />
        </mxCell>
        <mxCell id="nd-PTBWYmm2gFI9Ej4_t-12" value="+200" style="ellipse;whiteSpace=wrap;html=1;aspect=fixed;strokeWidth=2;fontFamily=JetBrains Mono;1,100..800&amp;display=swap;1,100..800&amp;display=swap;1,100..800&amp;display=swap;fontSource=https%3A%2F%2Ffonts.googleapis.com%2Fcss%3Ffamily%3DJetBrains%2BMono;fontStyle=0;fillColor=none;fontColor=#FFFFFF;strokeColor=#FFFFFF;" parent="1" vertex="1">
          <mxGeometry x="560" y="260" width="60" height="60" as="geometry" />
        </mxCell>
        <mxCell id="nd-PTBWYmm2gFI9Ej4_t-13" value="+300" style="ellipse;whiteSpace=wrap;html=1;aspect=fixed;strokeWidth=2;fontFamily=JetBrains Mono;1,100..800&amp;display=swap;1,100..800&amp;display=swap;1,100..800&amp;display=swap;fontSource=https%3A%2F%2Ffonts.googleapis.com%2Fcss%3Ffamily%3DJetBrains%2BMono;fontStyle=0;fillColor=none;fontColor=#FFFFFF;strokeColor=#FFFFFF;" parent="1" vertex="1">
          <mxGeometry x="720" y="260" width="60" height="60" as="geometry" />
        </mxCell>
        <mxCell id="nd-PTBWYmm2gFI9Ej4_t-15" value="" style="endArrow=none;html=1;rounded=0;entryX=0.5;entryY=1;entryDx=0;entryDy=0;exitX=0.5;exitY=0;exitDx=0;exitDy=0;strokeWidth=2;fontFamily=JetBrains Mono;1,100..800&amp;display=swap;1,100..800&amp;display=swap;1,100..800&amp;display=swap;fontSource=https%3A%2F%2Ffonts.googleapis.com%2Fcss%3Ffamily%3DJetBrains%2BMono;fontStyle=0;strokeColor=#FFFFFF;" parent="1" source="nd-PTBWYmm2gFI9Ej4_t-3" target="nd-PTBWYmm2gFI9Ej4_t-1" edge="1">
          <mxGeometry width="50" height="50" relative="1" as="geometry">
            <mxPoint x="680" y="170" as="sourcePoint" />
            <mxPoint x="430" y="130" as="targetPoint" />
          </mxGeometry>
        </mxCell>
        <mxCell id="nd-PTBWYmm2gFI9Ej4_t-16" value="" style="endArrow=none;html=1;rounded=0;exitX=0.5;exitY=0;exitDx=0;exitDy=0;entryX=0.5;entryY=1;entryDx=0;entryDy=0;strokeWidth=2;fontFamily=JetBrains Mono;1,100..800&amp;display=swap;1,100..800&amp;display=swap;1,100..800&amp;display=swap;fontSource=https%3A%2F%2Ffonts.googleapis.com%2Fcss%3Ffamily%3DJetBrains%2BMono;fontStyle=0;strokeColor=#FFFFFF;" parent="1" source="nd-PTBWYmm2gFI9Ej4_t-2" target="nd-PTBWYmm2gFI9Ej4_t-1" edge="1">
          <mxGeometry width="50" height="50" relative="1" as="geometry">
            <mxPoint x="430" y="170" as="sourcePoint" />
            <mxPoint x="380" y="130" as="targetPoint" />
          </mxGeometry>
        </mxCell>
        <mxCell id="nd-PTBWYmm2gFI9Ej4_t-17" value="" style="endArrow=none;html=1;rounded=0;exitX=0.5;exitY=0;exitDx=0;exitDy=0;entryX=0.5;entryY=1;entryDx=0;entryDy=0;strokeWidth=2;fontFamily=JetBrains Mono;1,100..800&amp;display=swap;1,100..800&amp;display=swap;1,100..800&amp;display=swap;fontSource=https%3A%2F%2Ffonts.googleapis.com%2Fcss%3Ffamily%3DJetBrains%2BMono;fontStyle=0;strokeColor=#FFFFFF;" parent="1" source="nd-PTBWYmm2gFI9Ej4_t-9" target="nd-PTBWYmm2gFI9Ej4_t-2" edge="1">
          <mxGeometry width="50" height="50" relative="1" as="geometry">
            <mxPoint x="420" y="270" as="sourcePoint" />
            <mxPoint x="180" y="230" as="targetPoint" />
          </mxGeometry>
        </mxCell>
        <mxCell id="nd-PTBWYmm2gFI9Ej4_t-19" value="" style="endArrow=none;html=1;rounded=0;exitX=0.5;exitY=0;exitDx=0;exitDy=0;entryX=0.5;entryY=1;entryDx=0;entryDy=0;strokeWidth=2;fontFamily=JetBrains Mono;1,100..800&amp;display=swap;1,100..800&amp;display=swap;1,100..800&amp;display=swap;fontSource=https%3A%2F%2Ffonts.googleapis.com%2Fcss%3Ffamily%3DJetBrains%2BMono;fontStyle=0;strokeColor=#FFFFFF;" parent="1" source="nd-PTBWYmm2gFI9Ej4_t-8" target="nd-PTBWYmm2gFI9Ej4_t-2" edge="1">
          <mxGeometry width="50" height="50" relative="1" as="geometry">
            <mxPoint x="-80" y="270" as="sourcePoint" />
            <mxPoint x="170" y="230" as="targetPoint" />
          </mxGeometry>
        </mxCell>
        <mxCell id="nd-PTBWYmm2gFI9Ej4_t-20" value="" style="endArrow=none;html=1;rounded=0;exitX=0.5;exitY=0;exitDx=0;exitDy=0;entryX=0.5;entryY=1;entryDx=0;entryDy=0;strokeWidth=2;fontFamily=JetBrains Mono;1,100..800&amp;display=swap;1,100..800&amp;display=swap;1,100..800&amp;display=swap;fontSource=https%3A%2F%2Ffonts.googleapis.com%2Fcss%3Ffamily%3DJetBrains%2BMono;fontStyle=0;strokeColor=#FFFFFF;" parent="1" source="nd-PTBWYmm2gFI9Ej4_t-10" target="nd-PTBWYmm2gFI9Ej4_t-3" edge="1">
          <mxGeometry width="50" height="50" relative="1" as="geometry">
            <mxPoint x="500" y="260" as="sourcePoint" />
            <mxPoint x="420" y="220" as="targetPoint" />
          </mxGeometry>
        </mxCell>
        <mxCell id="nd-PTBWYmm2gFI9Ej4_t-21" value="" style="endArrow=none;html=1;rounded=0;exitX=0.5;exitY=0;exitDx=0;exitDy=0;entryX=0.5;entryY=1;entryDx=0;entryDy=0;strokeWidth=2;fontFamily=JetBrains Mono;1,100..800&amp;display=swap;1,100..800&amp;display=swap;1,100..800&amp;display=swap;fontSource=https%3A%2F%2Ffonts.googleapis.com%2Fcss%3Ffamily%3DJetBrains%2BMono;fontStyle=0;strokeColor=#FFFFFF;" parent="1" source="nd-PTBWYmm2gFI9Ej4_t-6" target="nd-PTBWYmm2gFI9Ej4_t-3" edge="1">
          <mxGeometry width="50" height="50" relative="1" as="geometry">
            <mxPoint x="420" y="260" as="sourcePoint" />
            <mxPoint x="430" y="240" as="targetPoint" />
          </mxGeometry>
        </mxCell>
        <mxCell id="nd-PTBWYmm2gFI9Ej4_t-23" value="" style="endArrow=none;html=1;rounded=0;exitX=0.5;exitY=0;exitDx=0;exitDy=0;entryX=0.5;entryY=1;entryDx=0;entryDy=0;strokeWidth=2;fontFamily=JetBrains Mono;1,100..800&amp;display=swap;1,100..800&amp;display=swap;1,100..800&amp;display=swap;fontSource=https%3A%2F%2Ffonts.googleapis.com%2Fcss%3Ffamily%3DJetBrains%2BMono;fontStyle=0;strokeColor=#FFFFFF;" parent="1" source="nd-PTBWYmm2gFI9Ej4_t-13" target="nd-PTBWYmm2gFI9Ej4_t-4" edge="1">
          <mxGeometry width="50" height="50" relative="1" as="geometry">
            <mxPoint x="750" y="260" as="sourcePoint" />
            <mxPoint x="670" y="220" as="targetPoint" />
          </mxGeometry>
        </mxCell>
        <mxCell id="nd-PTBWYmm2gFI9Ej4_t-25" value="" style="endArrow=none;html=1;rounded=0;entryX=0.5;entryY=1;entryDx=0;entryDy=0;exitX=0.5;exitY=0;exitDx=0;exitDy=0;strokeWidth=2;fontFamily=JetBrains Mono;1,100..800&amp;display=swap;1,100..800&amp;display=swap;1,100..800&amp;display=swap;fontSource=https%3A%2F%2Ffonts.googleapis.com%2Fcss%3Ffamily%3DJetBrains%2BMono;fontStyle=0;strokeColor=#FFFFFF;" parent="1" source="nd-PTBWYmm2gFI9Ej4_t-12" target="nd-PTBWYmm2gFI9Ej4_t-4" edge="1">
          <mxGeometry width="50" height="50" relative="1" as="geometry">
            <mxPoint x="590" y="240" as="sourcePoint" />
            <mxPoint x="660" y="230" as="targetPoint" />
          </mxGeometry>
        </mxCell>
        <mxCell id="nd-PTBWYmm2gFI9Ej4_t-1" value="+100" style="ellipse;whiteSpace=wrap;html=1;aspect=fixed;strokeWidth=2;fontFamily=JetBrains Mono;1,100..800&amp;display=swap;1,100..800&amp;display=swap;1,100..800&amp;display=swap;fontSource=https%3A%2F%2Ffonts.googleapis.com%2Fcss%3Ffamily%3DJetBrains%2BMono;fontStyle=0;fillColor=none;fontColor=#FFFFFF;strokeColor=#A1DEA0;" parent="1" vertex="1">
          <mxGeometry x="390" y="60" width="60" height="60" as="geometry" />
        </mxCell>
        <mxCell id="nd-PTBWYmm2gFI9Ej4_t-5" value="-100" style="ellipse;whiteSpace=wrap;html=1;aspect=fixed;perimeterSpacing=0;strokeWidth=2;fontFamily=JetBrains Mono;1,100..800&amp;display=swap;1,100..800&amp;display=swap;1,100..800&amp;display=swap;fontSource=https%3A%2F%2Ffonts.googleapis.com%2Fcss%3Ffamily%3DJetBrains%2BMono;fontStyle=0;fillColor=none;fontColor=#FFFFFF;strokeColor=#A1DEA0;" parent="1" vertex="1">
          <mxGeometry x="140" y="260" width="60" height="60" as="geometry" />
        </mxCell>
        <mxCell id="nd-PTBWYmm2gFI9Ej4_t-7" value="+100" style="ellipse;whiteSpace=wrap;html=1;aspect=fixed;perimeterSpacing=0;strokeWidth=2;fontFamily=JetBrains Mono;1,100..800&amp;display=swap;1,100..800&amp;display=swap;1,100..800&amp;display=swap;fontSource=https%3A%2F%2Ffonts.googleapis.com%2Fcss%3Ffamily%3DJetBrains%2BMono;fontStyle=0;fillColor=none;fontColor=#FFFFFF;strokeColor=#A1DEA0;" parent="1" vertex="1">
          <mxGeometry x="640" y="260" width="60" height="60" as="geometry" />
        </mxCell>
        <mxCell id="nd-PTBWYmm2gFI9Ej4_t-11" value="-300" style="ellipse;whiteSpace=wrap;html=1;aspect=fixed;perimeterSpacing=0;strokeWidth=2;fontFamily=JetBrains Mono;1,100..800&amp;display=swap;1,100..800&amp;display=swap;1,100..800&amp;display=swap;fontSource=https%3A%2F%2Ffonts.googleapis.com%2Fcss%3Ffamily%3DJetBrains%2BMono;fontStyle=0;fillColor=none;fontColor=#FFFFFF;strokeColor=#A1DEA0;" parent="1" vertex="1">
          <mxGeometry x="310" y="260" width="60" height="60" as="geometry" />
        </mxCell>
        <mxCell id="nd-PTBWYmm2gFI9Ej4_t-14" value="" style="endArrow=none;html=1;rounded=0;entryX=0.5;entryY=1;entryDx=0;entryDy=0;exitX=0.5;exitY=0;exitDx=0;exitDy=0;strokeWidth=2;fontFamily=JetBrains Mono;1,100..800&amp;display=swap;1,100..800&amp;display=swap;1,100..800&amp;display=swap;fontSource=https%3A%2F%2Ffonts.googleapis.com%2Fcss%3Ffamily%3DJetBrains%2BMono;fontStyle=0;strokeColor=#A1DEA0;" parent="1" source="nd-PTBWYmm2gFI9Ej4_t-4" target="nd-PTBWYmm2gFI9Ej4_t-1" edge="1">
          <mxGeometry width="50" height="50" relative="1" as="geometry">
            <mxPoint x="500" y="190" as="sourcePoint" />
            <mxPoint x="470" y="130" as="targetPoint" />
          </mxGeometry>
        </mxCell>
        <mxCell id="nd-PTBWYmm2gFI9Ej4_t-18" value="" style="endArrow=none;html=1;rounded=0;exitX=0.5;exitY=0;exitDx=0;exitDy=0;entryX=0.5;entryY=1;entryDx=0;entryDy=0;strokeWidth=2;fontFamily=JetBrains Mono;1,100..800&amp;display=swap;1,100..800&amp;display=swap;1,100..800&amp;display=swap;fontSource=https%3A%2F%2Ffonts.googleapis.com%2Fcss%3Ffamily%3DJetBrains%2BMono;fontStyle=0;strokeColor=#A1DEA0;" parent="1" source="nd-PTBWYmm2gFI9Ej4_t-5" target="nd-PTBWYmm2gFI9Ej4_t-2" edge="1">
          <mxGeometry width="50" height="50" relative="1" as="geometry">
            <mxPoint x="170" y="270" as="sourcePoint" />
            <mxPoint x="180" y="230" as="targetPoint" />
          </mxGeometry>
        </mxCell>
        <mxCell id="nd-PTBWYmm2gFI9Ej4_t-22" value="" style="endArrow=none;html=1;rounded=0;entryX=0.5;entryY=1;entryDx=0;entryDy=0;exitX=0.5;exitY=0;exitDx=0;exitDy=0;strokeWidth=2;fontFamily=JetBrains Mono;1,100..800&amp;display=swap;1,100..800&amp;display=swap;1,100..800&amp;display=swap;fontSource=https%3A%2F%2Ffonts.googleapis.com%2Fcss%3Ffamily%3DJetBrains%2BMono;fontStyle=0;strokeColor=#A1DEA0;" parent="1" source="nd-PTBWYmm2gFI9Ej4_t-11" target="nd-PTBWYmm2gFI9Ej4_t-3" edge="1">
          <mxGeometry width="50" height="50" relative="1" as="geometry">
            <mxPoint x="340" y="240" as="sourcePoint" />
            <mxPoint x="400" y="230" as="targetPoint" />
          </mxGeometry>
        </mxCell>
        <mxCell id="nd-PTBWYmm2gFI9Ej4_t-24" value="" style="endArrow=none;html=1;rounded=0;exitX=0.5;exitY=0;exitDx=0;exitDy=0;entryX=0.5;entryY=1;entryDx=0;entryDy=0;strokeWidth=2;fontFamily=JetBrains Mono;1,100..800&amp;display=swap;1,100..800&amp;display=swap;1,100..800&amp;display=swap;fontSource=https%3A%2F%2Ffonts.googleapis.com%2Fcss%3Ffamily%3DJetBrains%2BMono;fontStyle=0;strokeColor=#A1DEA0;" parent="1" source="nd-PTBWYmm2gFI9Ej4_t-7" target="nd-PTBWYmm2gFI9Ej4_t-4" edge="1">
          <mxGeometry width="50" height="50" relative="1" as="geometry">
            <mxPoint x="670" y="260" as="sourcePoint" />
            <mxPoint x="680" y="230" as="targetPoint" />
          </mxGeometry>
        </mxCell>
        <mxCell id="nd-PTBWYmm2gFI9Ej4_t-4" value="-100" style="ellipse;whiteSpace=wrap;html=1;aspect=fixed;perimeterSpacing=0;strokeWidth=2;fontFamily=JetBrains Mono;1,100..800&amp;display=swap;1,100..800&amp;display=swap;1,100..800&amp;display=swap;fontSource=https%3A%2F%2Ffonts.googleapis.com%2Fcss%3Ffamily%3DJetBrains%2BMono;fontStyle=0;fillColor=none;fontColor=#FFFFFF;strokeColor=#A1DEA0;" parent="1" vertex="1">
          <mxGeometry x="640" y="160" width="60" height="60" as="geometry" />
        </mxCell>
        <mxCell id="nd-PTBWYmm2gFI9Ej4_t-3" value="+300" style="ellipse;whiteSpace=wrap;html=1;aspect=fixed;strokeWidth=2;fontFamily=JetBrains Mono;1,100..800&amp;display=swap;1,100..800&amp;display=swap;1,100..800&amp;display=swap;fontSource=https%3A%2F%2Ffonts.googleapis.com%2Fcss%3Ffamily%3DJetBrains%2BMono;fontStyle=0;fillColor=none;fontColor=#FFFFFF;strokeColor=#FFFFFF;" parent="1" vertex="1">
          <mxGeometry x="390" y="160" width="60" height="60" as="geometry" />
        </mxCell>
        <mxCell id="nd-PTBWYmm2gFI9Ej4_t-2" value="+100" style="ellipse;whiteSpace=wrap;html=1;aspect=fixed;strokeWidth=2;fontFamily=JetBrains Mono;1,100..800&amp;display=swap;1,100..800&amp;display=swap;1,100..800&amp;display=swap;fontSource=https%3A%2F%2Ffonts.googleapis.com%2Fcss%3Ffamily%3DJetBrains%2BMono;fontStyle=0;fillColor=none;fontColor=#FFFFFF;strokeColor=#FFFFFF;" parent="1" vertex="1">
          <mxGeometry x="140" y="160" width="60" height="60" as="geometry" />
        </mxCell>
        <mxCell id="nd-PTBWYmm2gFI9Ej4_t-59" value="0" style="ellipse;whiteSpace=wrap;html=1;aspect=fixed;strokeWidth=2;fontFamily=JetBrains Mono;1,100..800&amp;display=swap;1,100..800&amp;display=swap;1,100..800&amp;display=swap;fontSource=https%3A%2F%2Ffonts.googleapis.com%2Fcss%3Ffamily%3DJetBrains%2BMono;fontStyle=0;fillColor=none;fontColor=#FFFFFF;strokeColor=#FFFFFF;textOpacity=30;opacity=30;" parent="1" vertex="1">
          <mxGeometry x="390" y="580" width="60" height="60" as="geometry" />
        </mxCell>
        <mxCell id="nd-PTBWYmm2gFI9Ej4_t-60" value="+300" style="ellipse;whiteSpace=wrap;html=1;aspect=fixed;strokeWidth=2;fontFamily=JetBrains Mono;1,100..800&amp;display=swap;1,100..800&amp;display=swap;1,100..800&amp;display=swap;fontSource=https%3A%2F%2Ffonts.googleapis.com%2Fcss%3Ffamily%3DJetBrains%2BMono;fontStyle=0;fillColor=none;fontColor=#FFFFFF;strokeColor=#FFFFFF;" parent="1" vertex="1">
          <mxGeometry x="60" y="580" width="60" height="60" as="geometry" />
        </mxCell>
        <mxCell id="nd-PTBWYmm2gFI9Ej4_t-61" value="+200" style="ellipse;whiteSpace=wrap;html=1;aspect=fixed;strokeWidth=2;fontFamily=JetBrains Mono;1,100..800&amp;display=swap;1,100..800&amp;display=swap;1,100..800&amp;display=swap;fontSource=https%3A%2F%2Ffonts.googleapis.com%2Fcss%3Ffamily%3DJetBrains%2BMono;fontStyle=0;fillColor=none;fontColor=#FFFFFF;strokeColor=#FFFFFF;" parent="1" vertex="1">
          <mxGeometry x="220" y="580" width="60" height="60" as="geometry" />
        </mxCell>
        <mxCell id="nd-PTBWYmm2gFI9Ej4_t-62" value="-100" style="ellipse;whiteSpace=wrap;html=1;aspect=fixed;strokeWidth=2;fontFamily=JetBrains Mono;1,100..800&amp;display=swap;1,100..800&amp;display=swap;1,100..800&amp;display=swap;fontSource=https%3A%2F%2Ffonts.googleapis.com%2Fcss%3Ffamily%3DJetBrains%2BMono;fontStyle=0;fillColor=none;fontColor=#FFFFFF;strokeColor=#FFFFFF;textOpacity=30;opacity=30;" parent="1" vertex="1">
          <mxGeometry x="470" y="580" width="60" height="60" as="geometry" />
        </mxCell>
        <mxCell id="nd-PTBWYmm2gFI9Ej4_t-63" value="+200" style="ellipse;whiteSpace=wrap;html=1;aspect=fixed;strokeWidth=2;fontFamily=JetBrains Mono;1,100..800&amp;display=swap;1,100..800&amp;display=swap;1,100..800&amp;display=swap;fontSource=https%3A%2F%2Ffonts.googleapis.com%2Fcss%3Ffamily%3DJetBrains%2BMono;fontStyle=0;fillColor=none;fontColor=#FFFFFF;strokeColor=#FFFFFF;" parent="1" vertex="1">
          <mxGeometry x="560" y="580" width="60" height="60" as="geometry" />
        </mxCell>
        <mxCell id="nd-PTBWYmm2gFI9Ej4_t-64" value="+300" style="ellipse;whiteSpace=wrap;html=1;aspect=fixed;strokeWidth=2;fontFamily=JetBrains Mono;1,100..800&amp;display=swap;1,100..800&amp;display=swap;1,100..800&amp;display=swap;fontSource=https%3A%2F%2Ffonts.googleapis.com%2Fcss%3Ffamily%3DJetBrains%2BMono;fontStyle=0;fillColor=none;fontColor=#FFFFFF;strokeColor=#FFFFFF;" parent="1" vertex="1">
          <mxGeometry x="720" y="580" width="60" height="60" as="geometry" />
        </mxCell>
        <mxCell id="nd-PTBWYmm2gFI9Ej4_t-65" value="" style="endArrow=none;html=1;rounded=0;entryX=0.5;entryY=1;entryDx=0;entryDy=0;strokeWidth=2;fontFamily=JetBrains Mono;1,100..800&amp;display=swap;1,100..800&amp;display=swap;1,100..800&amp;display=swap;fontSource=https%3A%2F%2Ffonts.googleapis.com%2Fcss%3Ffamily%3DJetBrains%2BMono;fontStyle=0;strokeColor=#FFFFFF;" parent="1" target="nd-PTBWYmm2gFI9Ej4_t-73" edge="1">
          <mxGeometry width="50" height="50" relative="1" as="geometry">
            <mxPoint x="420" y="455" as="sourcePoint" />
            <mxPoint x="430" y="450" as="targetPoint" />
          </mxGeometry>
        </mxCell>
        <mxCell id="nd-PTBWYmm2gFI9Ej4_t-66" value="" style="endArrow=none;html=1;rounded=0;exitX=0.5;exitY=0;exitDx=0;exitDy=0;entryX=0.5;entryY=1;entryDx=0;entryDy=0;strokeWidth=2;fontFamily=JetBrains Mono;1,100..800&amp;display=swap;1,100..800&amp;display=swap;1,100..800&amp;display=swap;fontSource=https%3A%2F%2Ffonts.googleapis.com%2Fcss%3Ffamily%3DJetBrains%2BMono;fontStyle=0;strokeColor=#FFFFFF;" parent="1" source="nd-PTBWYmm2gFI9Ej4_t-83" target="nd-PTBWYmm2gFI9Ej4_t-73" edge="1">
          <mxGeometry width="50" height="50" relative="1" as="geometry">
            <mxPoint x="430" y="490" as="sourcePoint" />
            <mxPoint x="380" y="450" as="targetPoint" />
          </mxGeometry>
        </mxCell>
        <mxCell id="nd-PTBWYmm2gFI9Ej4_t-67" value="" style="endArrow=none;html=1;rounded=0;exitX=0.5;exitY=0;exitDx=0;exitDy=0;entryX=0.5;entryY=1;entryDx=0;entryDy=0;strokeWidth=2;fontFamily=JetBrains Mono;1,100..800&amp;display=swap;1,100..800&amp;display=swap;1,100..800&amp;display=swap;fontSource=https%3A%2F%2Ffonts.googleapis.com%2Fcss%3Ffamily%3DJetBrains%2BMono;fontStyle=0;strokeColor=#FFFFFF;" parent="1" source="nd-PTBWYmm2gFI9Ej4_t-61" target="nd-PTBWYmm2gFI9Ej4_t-83" edge="1">
          <mxGeometry width="50" height="50" relative="1" as="geometry">
            <mxPoint x="420" y="590" as="sourcePoint" />
            <mxPoint x="180" y="550" as="targetPoint" />
          </mxGeometry>
        </mxCell>
        <mxCell id="nd-PTBWYmm2gFI9Ej4_t-68" value="" style="endArrow=none;html=1;rounded=0;exitX=0.5;exitY=0;exitDx=0;exitDy=0;entryX=0.5;entryY=1;entryDx=0;entryDy=0;strokeWidth=2;fontFamily=JetBrains Mono;1,100..800&amp;display=swap;1,100..800&amp;display=swap;1,100..800&amp;display=swap;fontSource=https%3A%2F%2Ffonts.googleapis.com%2Fcss%3Ffamily%3DJetBrains%2BMono;fontStyle=0;strokeColor=#FFFFFF;" parent="1" source="nd-PTBWYmm2gFI9Ej4_t-60" target="nd-PTBWYmm2gFI9Ej4_t-83" edge="1">
          <mxGeometry width="50" height="50" relative="1" as="geometry">
            <mxPoint x="-80" y="590" as="sourcePoint" />
            <mxPoint x="170" y="550" as="targetPoint" />
          </mxGeometry>
        </mxCell>
        <mxCell id="nd-PTBWYmm2gFI9Ej4_t-69" value="" style="endArrow=none;html=1;rounded=0;exitX=0.5;exitY=0;exitDx=0;exitDy=0;entryX=0.5;entryY=1;entryDx=0;entryDy=0;strokeWidth=2;fontFamily=JetBrains Mono;1,100..800&amp;display=swap;1,100..800&amp;display=swap;1,100..800&amp;display=swap;fontSource=https%3A%2F%2Ffonts.googleapis.com%2Fcss%3Ffamily%3DJetBrains%2BMono;fontStyle=0;strokeColor=#FFFFFF;textOpacity=30;opacity=30;" parent="1" source="nd-PTBWYmm2gFI9Ej4_t-62" target="nd-PTBWYmm2gFI9Ej4_t-82" edge="1">
          <mxGeometry width="50" height="50" relative="1" as="geometry">
            <mxPoint x="500" y="580" as="sourcePoint" />
            <mxPoint x="420" y="540" as="targetPoint" />
          </mxGeometry>
        </mxCell>
        <mxCell id="nd-PTBWYmm2gFI9Ej4_t-70" value="" style="endArrow=none;html=1;rounded=0;exitX=0.5;exitY=0;exitDx=0;exitDy=0;entryX=0.5;entryY=1;entryDx=0;entryDy=0;strokeWidth=2;fontFamily=JetBrains Mono;1,100..800&amp;display=swap;1,100..800&amp;display=swap;1,100..800&amp;display=swap;fontSource=https%3A%2F%2Ffonts.googleapis.com%2Fcss%3Ffamily%3DJetBrains%2BMono;fontStyle=0;strokeColor=#FFFFFF;textOpacity=30;opacity=30;" parent="1" source="nd-PTBWYmm2gFI9Ej4_t-59" target="nd-PTBWYmm2gFI9Ej4_t-82" edge="1">
          <mxGeometry width="50" height="50" relative="1" as="geometry">
            <mxPoint x="420" y="580" as="sourcePoint" />
            <mxPoint x="430" y="560" as="targetPoint" />
          </mxGeometry>
        </mxCell>
        <mxCell id="nd-PTBWYmm2gFI9Ej4_t-71" value="" style="endArrow=none;html=1;rounded=0;exitX=0.5;exitY=0;exitDx=0;exitDy=0;entryX=0.5;entryY=1;entryDx=0;entryDy=0;strokeWidth=2;fontFamily=JetBrains Mono;1,100..800&amp;display=swap;1,100..800&amp;display=swap;1,100..800&amp;display=swap;fontSource=https%3A%2F%2Ffonts.googleapis.com%2Fcss%3Ffamily%3DJetBrains%2BMono;fontStyle=0;strokeColor=#FFFFFF;" parent="1" source="nd-PTBWYmm2gFI9Ej4_t-64" target="nd-PTBWYmm2gFI9Ej4_t-81" edge="1">
          <mxGeometry width="50" height="50" relative="1" as="geometry">
            <mxPoint x="750" y="580" as="sourcePoint" />
            <mxPoint x="670" y="540" as="targetPoint" />
          </mxGeometry>
        </mxCell>
        <mxCell id="nd-PTBWYmm2gFI9Ej4_t-72" value="" style="endArrow=none;html=1;rounded=0;entryX=0.5;entryY=1;entryDx=0;entryDy=0;exitX=0.5;exitY=0;exitDx=0;exitDy=0;strokeWidth=2;fontFamily=JetBrains Mono;1,100..800&amp;display=swap;1,100..800&amp;display=swap;1,100..800&amp;display=swap;fontSource=https%3A%2F%2Ffonts.googleapis.com%2Fcss%3Ffamily%3DJetBrains%2BMono;fontStyle=0;strokeColor=#FFFFFF;" parent="1" source="nd-PTBWYmm2gFI9Ej4_t-63" target="nd-PTBWYmm2gFI9Ej4_t-81" edge="1">
          <mxGeometry width="50" height="50" relative="1" as="geometry">
            <mxPoint x="590" y="560" as="sourcePoint" />
            <mxPoint x="660" y="550" as="targetPoint" />
          </mxGeometry>
        </mxCell>
        <mxCell id="nd-PTBWYmm2gFI9Ej4_t-73" value="+100" style="ellipse;whiteSpace=wrap;html=1;aspect=fixed;strokeWidth=2;fontFamily=JetBrains Mono;1,100..800&amp;display=swap;1,100..800&amp;display=swap;1,100..800&amp;display=swap;fontSource=https%3A%2F%2Ffonts.googleapis.com%2Fcss%3Ffamily%3DJetBrains%2BMono;fontStyle=0;fillColor=none;fontColor=#FFFFFF;strokeColor=#A1DEA0;" parent="1" vertex="1">
          <mxGeometry x="390" y="380" width="60" height="60" as="geometry" />
        </mxCell>
        <mxCell id="nd-PTBWYmm2gFI9Ej4_t-74" value="-100" style="ellipse;whiteSpace=wrap;html=1;aspect=fixed;perimeterSpacing=0;strokeWidth=2;fontFamily=JetBrains Mono;1,100..800&amp;display=swap;1,100..800&amp;display=swap;1,100..800&amp;display=swap;fontSource=https%3A%2F%2Ffonts.googleapis.com%2Fcss%3Ffamily%3DJetBrains%2BMono;fontStyle=0;fillColor=none;fontColor=#FFFFFF;strokeColor=#A1DEA0;" parent="1" vertex="1">
          <mxGeometry x="140" y="580" width="60" height="60" as="geometry" />
        </mxCell>
        <mxCell id="nd-PTBWYmm2gFI9Ej4_t-75" value="+100" style="ellipse;whiteSpace=wrap;html=1;aspect=fixed;perimeterSpacing=0;strokeWidth=2;fontFamily=JetBrains Mono;1,100..800&amp;display=swap;1,100..800&amp;display=swap;1,100..800&amp;display=swap;fontSource=https%3A%2F%2Ffonts.googleapis.com%2Fcss%3Ffamily%3DJetBrains%2BMono;fontStyle=0;fillColor=none;fontColor=#FFFFFF;strokeColor=#A1DEA0;" parent="1" vertex="1">
          <mxGeometry x="640" y="580" width="60" height="60" as="geometry" />
        </mxCell>
        <mxCell id="nd-PTBWYmm2gFI9Ej4_t-76" value="-300" style="ellipse;whiteSpace=wrap;html=1;aspect=fixed;perimeterSpacing=0;strokeWidth=2;fontFamily=JetBrains Mono;1,100..800&amp;display=swap;1,100..800&amp;display=swap;1,100..800&amp;display=swap;fontSource=https%3A%2F%2Ffonts.googleapis.com%2Fcss%3Ffamily%3DJetBrains%2BMono;fontStyle=0;fillColor=none;fontColor=#FFFFFF;strokeColor=#A1DEA0;" parent="1" vertex="1">
          <mxGeometry x="310" y="580" width="60" height="60" as="geometry" />
        </mxCell>
        <mxCell id="nd-PTBWYmm2gFI9Ej4_t-77" value="" style="endArrow=none;html=1;rounded=0;entryX=0.5;entryY=1;entryDx=0;entryDy=0;exitX=0.5;exitY=0;exitDx=0;exitDy=0;strokeWidth=2;fontFamily=JetBrains Mono;1,100..800&amp;display=swap;1,100..800&amp;display=swap;1,100..800&amp;display=swap;fontSource=https%3A%2F%2Ffonts.googleapis.com%2Fcss%3Ffamily%3DJetBrains%2BMono;fontStyle=0;strokeColor=#A1DEA0;" parent="1" source="nd-PTBWYmm2gFI9Ej4_t-81" target="nd-PTBWYmm2gFI9Ej4_t-73" edge="1">
          <mxGeometry width="50" height="50" relative="1" as="geometry">
            <mxPoint x="500" y="510" as="sourcePoint" />
            <mxPoint x="470" y="450" as="targetPoint" />
          </mxGeometry>
        </mxCell>
        <mxCell id="nd-PTBWYmm2gFI9Ej4_t-78" value="" style="endArrow=none;html=1;rounded=0;exitX=0.5;exitY=0;exitDx=0;exitDy=0;entryX=0.5;entryY=1;entryDx=0;entryDy=0;strokeWidth=2;fontFamily=JetBrains Mono;1,100..800&amp;display=swap;1,100..800&amp;display=swap;1,100..800&amp;display=swap;fontSource=https%3A%2F%2Ffonts.googleapis.com%2Fcss%3Ffamily%3DJetBrains%2BMono;fontStyle=0;strokeColor=#A1DEA0;" parent="1" source="nd-PTBWYmm2gFI9Ej4_t-74" target="nd-PTBWYmm2gFI9Ej4_t-83" edge="1">
          <mxGeometry width="50" height="50" relative="1" as="geometry">
            <mxPoint x="170" y="590" as="sourcePoint" />
            <mxPoint x="180" y="550" as="targetPoint" />
          </mxGeometry>
        </mxCell>
        <mxCell id="nd-PTBWYmm2gFI9Ej4_t-79" value="" style="endArrow=none;html=1;rounded=0;entryX=0.5;entryY=1;entryDx=0;entryDy=0;exitX=0.5;exitY=0;exitDx=0;exitDy=0;strokeWidth=2;fontFamily=JetBrains Mono;1,100..800&amp;display=swap;1,100..800&amp;display=swap;1,100..800&amp;display=swap;fontSource=https%3A%2F%2Ffonts.googleapis.com%2Fcss%3Ffamily%3DJetBrains%2BMono;fontStyle=0;strokeColor=#A1DEA0;" parent="1" source="nd-PTBWYmm2gFI9Ej4_t-76" target="nd-PTBWYmm2gFI9Ej4_t-82" edge="1">
          <mxGeometry width="50" height="50" relative="1" as="geometry">
            <mxPoint x="340" y="560" as="sourcePoint" />
            <mxPoint x="400" y="550" as="targetPoint" />
          </mxGeometry>
        </mxCell>
        <mxCell id="nd-PTBWYmm2gFI9Ej4_t-80" value="" style="endArrow=none;html=1;rounded=0;exitX=0.5;exitY=0;exitDx=0;exitDy=0;entryX=0.5;entryY=1;entryDx=0;entryDy=0;strokeWidth=2;fontFamily=JetBrains Mono;1,100..800&amp;display=swap;1,100..800&amp;display=swap;1,100..800&amp;display=swap;fontSource=https%3A%2F%2Ffonts.googleapis.com%2Fcss%3Ffamily%3DJetBrains%2BMono;fontStyle=0;strokeColor=#A1DEA0;" parent="1" source="nd-PTBWYmm2gFI9Ej4_t-75" target="nd-PTBWYmm2gFI9Ej4_t-81" edge="1">
          <mxGeometry width="50" height="50" relative="1" as="geometry">
            <mxPoint x="670" y="580" as="sourcePoint" />
            <mxPoint x="680" y="550" as="targetPoint" />
          </mxGeometry>
        </mxCell>
        <mxCell id="nd-PTBWYmm2gFI9Ej4_t-81" value="-100" style="ellipse;whiteSpace=wrap;html=1;aspect=fixed;perimeterSpacing=0;strokeWidth=2;fontFamily=JetBrains Mono;1,100..800&amp;display=swap;1,100..800&amp;display=swap;1,100..800&amp;display=swap;fontSource=https%3A%2F%2Ffonts.googleapis.com%2Fcss%3Ffamily%3DJetBrains%2BMono;fontStyle=0;fillColor=none;fontColor=#FFFFFF;strokeColor=#A1DEA0;" parent="1" vertex="1">
          <mxGeometry x="640" y="480" width="60" height="60" as="geometry" />
        </mxCell>
        <mxCell id="nd-PTBWYmm2gFI9Ej4_t-82" value="+300" style="ellipse;whiteSpace=wrap;html=1;aspect=fixed;strokeWidth=2;fontFamily=JetBrains Mono;1,100..800&amp;display=swap;1,100..800&amp;display=swap;1,100..800&amp;display=swap;fontSource=https%3A%2F%2Ffonts.googleapis.com%2Fcss%3Ffamily%3DJetBrains%2BMono;fontStyle=0;fillColor=none;fontColor=#FFFFFF;strokeColor=#FFFFFF;" parent="1" vertex="1">
          <mxGeometry x="390" y="480" width="60" height="60" as="geometry" />
        </mxCell>
        <mxCell id="nd-PTBWYmm2gFI9Ej4_t-83" value="+100" style="ellipse;whiteSpace=wrap;html=1;aspect=fixed;strokeWidth=2;fontFamily=JetBrains Mono;1,100..800&amp;display=swap;1,100..800&amp;display=swap;1,100..800&amp;display=swap;fontSource=https%3A%2F%2Ffonts.googleapis.com%2Fcss%3Ffamily%3DJetBrains%2BMono;fontStyle=0;fillColor=none;fontColor=#FFFFFF;strokeColor=#FFFFFF;" parent="1" vertex="1">
          <mxGeometry x="140" y="480" width="60" height="60" as="geometry" />
        </mxCell>
        <mxCell id="nd-PTBWYmm2gFI9Ej4_t-86" value="" style="endArrow=none;html=1;rounded=0;entryX=0.5;entryY=1;entryDx=0;entryDy=0;strokeWidth=2;fontFamily=JetBrains Mono;1,100..800&amp;display=swap;1,100..800&amp;display=swap;1,100..800&amp;display=swap;fontSource=https%3A%2F%2Ffonts.googleapis.com%2Fcss%3Ffamily%3DJetBrains%2BMono;fontStyle=0;strokeColor=#FFFFFF;exitX=0.5;exitY=0;exitDx=0;exitDy=0;endSize=6;" parent="1" source="nd-PTBWYmm2gFI9Ej4_t-82" edge="1">
          <mxGeometry width="50" height="50" relative="1" as="geometry">
            <mxPoint x="420" y="480" as="sourcePoint" />
            <mxPoint x="420" y="465" as="targetPoint" />
          </mxGeometry>
        </mxCell>
        <mxCell id="nd-PTBWYmm2gFI9Ej4_t-87" value="" style="endArrow=none;html=1;rounded=0;strokeColor=#FFFFFF;strokeWidth=2;dashed=1;dashPattern=1 1;fontStyle=0" parent="1" edge="1">
          <mxGeometry width="50" height="50" relative="1" as="geometry">
            <mxPoint x="404" y="465" as="sourcePoint" />
            <mxPoint x="437" y="455" as="targetPoint" />
          </mxGeometry>
        </mxCell>
      </root>
    </mxGraphModel>
  </diagram>
</mxfile>
